<?xml version="1.0" encoding="UTF-8"?>
<svg version="1.1" xmlns="http://www.w3.org/2000/svg" width="310" height="310">
<path d="M0 0 C0.87785156 0.00143005 1.75570312 0.00286011 2.66015625 0.0043335 C16.77617147 0.0611597 29.97544724 1.17757142 43.5 5.5 C44.57797852 5.82895264 44.57797852 5.82895264 45.67773438 6.16455078 C63.06059489 11.59161317 78.76466258 20.85439895 92.89355469 32.21386719 C94.3896636 33.41166381 95.91648526 34.57081777 97.4453125 35.7265625 C98.12335938 36.31179687 98.80140625 36.89703125 99.5 37.5 C99.5 38.16 99.5 38.82 99.5 39.5 C100.05558594 39.72429688 100.61117187 39.94859375 101.18359375 40.1796875 C121.06098658 51.50946621 134.24738063 82.69232335 140.5 103.5 C140.74266602 104.24620605 140.98533203 104.99241211 141.23535156 105.76123047 C145.38010082 118.78251453 145.99958921 131.63458098 146.0625 145.1875 C146.0756424 146.40883636 146.0756424 146.40883636 146.08905029 147.65484619 C146.33849537 181.46274172 133.50184075 214.82371741 111.5 240.5 C110.84 240.5 110.18 240.5 109.5 240.5 C109.2628125 241.06203125 109.025625 241.6240625 108.78125 242.203125 C107.21052303 245.01894042 105.28528536 246.97955416 103 249.25 C101.80890625 250.44882812 101.80890625 250.44882812 100.59375 251.671875 C98.5 253.5 98.5 253.5 96.5 253.5 C96.5 254.16 96.5 254.82 96.5 255.5 C94.3296474 257.30558746 92.16121505 258.97674012 89.875 260.625 C88.86143433 261.36097412 88.86143433 261.36097412 87.82739258 262.11181641 C81.31577492 266.76221374 74.54598101 270.72536732 67.5 274.5 C66.72140625 274.94730469 65.9428125 275.39460938 65.140625 275.85546875 C59.45987621 278.96779388 53.4254874 281.03898191 47.3125 283.125 C46.47581787 283.4144751 45.63913574 283.7039502 44.77709961 284.00219727 C30.87701226 288.59594704 17.77819394 289.99223315 3.24804688 289.89111328 C0.50340091 289.87501994 -2.23977315 289.8910557 -4.984375 289.91015625 C-19.26361668 289.92864081 -32.28692439 287.97379127 -45.875 283.375 C-47.19927002 282.92930664 -47.19927002 282.92930664 -48.55029297 282.47460938 C-61.4445214 277.95780359 -73.20884588 271.13533356 -84.5 263.5 C-85.60021484 262.77103516 -85.60021484 262.77103516 -86.72265625 262.02734375 C-88.35809022 260.91212734 -89.93749091 259.71528485 -91.5 258.5 C-91.5 257.84 -91.5 257.18 -91.5 256.5 C-92.09167969 256.22414063 -92.68335938 255.94828125 -93.29296875 255.6640625 C-99.7388494 252.26428828 -105.20243204 246.29975737 -109.5 240.5 C-109.5 239.84 -109.5 239.18 -109.5 238.5 C-110.49 238.17 -111.48 237.84 -112.5 237.5 C-114.04538883 235.54839468 -115.43941006 233.6293984 -116.8125 231.5625 C-117.21130371 230.97130371 -117.61010742 230.38010742 -118.02099609 229.77099609 C-119.19252986 228.02149937 -120.34916642 226.26316585 -121.5 224.5 C-122.05300781 223.65566406 -122.60601562 222.81132812 -123.17578125 221.94140625 C-143.2529542 189.85039936 -149.62308018 148.68031393 -141.5 111.6875 C-135.88135743 89.12413826 -124.83806006 67.06143432 -109.5 49.5 C-108.84 49.5 -108.18 49.5 -107.5 49.5 C-107.2628125 48.93796875 -107.025625 48.3759375 -106.78125 47.796875 C-105.21052303 44.98105958 -103.28528536 43.02044584 -101 40.75 C-100.2059375 39.95078125 -99.411875 39.1515625 -98.59375 38.328125 C-96.5 36.5 -96.5 36.5 -94.5 36.5 C-94.5 35.84 -94.5 35.18 -94.5 34.5 C-92.64081863 32.86294669 -90.78766539 31.36146756 -88.8125 29.875 C-88.22235107 29.42914551 -87.63220215 28.98329102 -87.02416992 28.52392578 C-71.29946663 16.81452955 -53.57411584 8.20864008 -34.5 3.5 C-33.46343262 3.24105957 -32.42686523 2.98211914 -31.35888672 2.71533203 C-20.8819497 0.34529689 -10.71639436 -0.05640474 0 0 Z " fill="#E0DEDE" transform="translate(157.5,8.5)"/>
</svg>
