<svg width="300" height="200" version="1.1" xmlns="http://www.w3.org/2000/svg" desc="Created with imagetracer.js version 1.2.6" ><path fill="rgb(9,9,8)" stroke="rgb(9,9,8)" stroke-width="1" opacity="0.01568627450980392" d="M 0 0 L 300 0 L 300 200 L 0 200 L 0 0 Z M 55 10 L 43 13 L 29 21 Q 11 33 6 58 L 6 143 Q 9 157 17 168 Q 29 185 55 190 L 245 190 L 257 187 L 271 179 Q 289 166 294 141 L 294 59 L 290 45 L 282 32 Q 270 15 246 10 L 55 10 Z " /><path fill="rgb(227,239,212)" stroke="rgb(227,239,212)" stroke-width="1" opacity="0.9921568627450981" d="M 56 10 L 62.5 10 L 63 12 L 56.5 12 L 56 10 Z " /><path fill="rgb(227,239,212)" stroke="rgb(227,239,212)" stroke-width="1" opacity="0.9921568627450981" d="M 237 10 L 243.5 10 L 244 12 L 237.5 12 L 237 10 Z " /><path fill="rgb(227,239,212)" stroke="rgb(227,239,212)" stroke-width="1" opacity="0.9921568627450981" d="M 245.5 10 L 249 11 Q 250.1 13.7 247.5 13 L 245.5 10 Z " /><path fill="rgb(227,239,212)" stroke="rgb(227,239,212)" stroke-width="1" opacity="0.9921568627450981" d="M 49.5 11 Q 54.3 9.7 53 13 Q 47 12.3 44 15 Q 42.7 11.7 47.5 13 L 49.5 11 Z " /><path fill="rgb(227,239,212)" stroke="rgb(227,239,212)" stroke-width="1" opacity="0.9921568627450981" d="M 250.5 11 L 258 13 L 258.5 15 L 260.5 15 L 270 20.5 L 270.5 22 L 271.5 21 L 282 31.5 L 290 44.5 L 294 58.5 L 294 140.5 Q 288.8 166.3 270.5 179 L 256.5 187 L 244.5 190 L 54.5 190 Q 29.4 185.1 17 167.5 L 8 150.5 L 6 139.5 L 7 139.5 Q 8.3 149.7 13 156.5 L 13 160 L 16 161.5 L 17.5 165 Q 19.8 164.3 19 166.5 Q 23.2 168.8 21.5 171 Q 24.8 169.9 24 172.5 L 32 178 L 33.5 181 L 36 180 Q 34.8 183 38.5 182 L 43 183 L 43.5 185 L 46 184 Q 44.9 186.7 47.5 186 L 49 185.5 L 49.5 188 Q 51 184.5 52.5 187 L 54.5 188 L 60.5 188 L 62.5 187 L 62.5 189 L 236.5 189 L 237 187.5 L 240.5 188 L 242.5 189 L 243 187 L 246.5 188 L 246.5 186 L 249.5 188 L 250 186 Q 253.4 186.8 254.5 184 L 257 185.5 L 258.5 183 L 266 181 Q 264.3 176.9 268.5 178 Q 271 173.5 276 173 Q 274.9 170.3 277.5 171 L 278.5 168 Q 282.3 169.3 281 165.5 L 285.5 159 L 287 158.5 L 286 156.5 L 290 150.5 L 289.5 149 L 291 149.5 L 290 146.5 L 292 142.5 L 293 140.5 Q 290.3 138.7 292 132.5 L 293 131.5 L 293 66.5 L 292 64.5 Q 294.3 63.3 293 58.5 L 291 58.5 L 291 56.5 Q 291.6 51.9 289 50.5 L 289 48.5 L 289 46.5 L 284 39.5 L 286 38.5 L 282 35.5 L 282.5 34 L 277 29.5 L 275.5 27 L 266.5 20 L 264 20 Q 265.3 17 261.5 18 Q 257.5 14.3 251 14 L 250.5 11 Z " /><path fill="rgb(227,239,212)" stroke="rgb(227,239,212)" stroke-width="1" opacity="0.9921568627450981" d="M 42.5 13 L 43 16 L 37 18 L 38.5 15 L 42.5 13 Z " /><path fill="rgb(227,239,212)" stroke="rgb(227,239,212)" stroke-width="1" opacity="0.9921568627450981" d="M 54.5 16 L 55.5 17 L 63 17 L 62.5 19 L 54.5 19 L 44.5 22 L 28 32 L 25 38 L 22 39.5 L 17.5 49 L 15 48.5 L 18 41 Q 20.7 42.1 20 39.5 L 28.5 29 L 31 27.5 L 31 26 L 34 26 Q 32.9 23.3 35.5 24 L 39 22.5 L 39.5 21 L 41 21.5 Q 40.2 18.9 43.5 20 L 46.5 19 L 49.5 17 L 51.5 18 L 54.5 16 Z " /><path fill="rgb(227,239,212)" stroke="rgb(227,239,212)" stroke-width="1" opacity="0.9921568627450981" d="M 69.5 16 L 229.5 16 L 231 17.5 L 230.5 19 L 69.5 19 Q 66.5 17.5 69.5 16 Z " /><path fill="rgb(227,239,212)" stroke="rgb(227,239,212)" stroke-width="1" opacity="0.9921568627450981" d="M 237.5 16 Q 238.8 18.2 243.5 17 L 246 16 Q 244.7 19.7 250.5 18 L 260.5 23 L 261.5 22 L 264.5 25 L 277 35.5 L 285 50.5 L 287 58.5 L 287 68.5 L 285 67.5 L 286 65.5 L 285 62.5 L 284 52 Q 280.7 53.3 282 48.5 L 277 39 Q 274.3 40.1 275 37.5 L 268.5 30 L 265 29 Q 266.3 26 262.5 27 L 259.5 24 L 250.5 20 L 237.5 19 L 236 17.5 L 237.5 16 Z " /><path fill="rgb(227,239,212)" stroke="rgb(227,239,212)" stroke-width="1" opacity="0.9921568627450981" d="M 35.5 17 L 35 18.5 Q 35.8 20.8 33.5 20 Q 32.4 22.8 29 22 L 26.5 26 L 20 30.5 L 17.5 34 L 17 32.5 L 26.5 23 L 28 23 Q 26.9 20.3 29.5 21 L 35.5 17 Z " /><path fill="rgb(227,239,212)" stroke="rgb(227,239,212)" stroke-width="1" opacity="0.9921568627450981" d="M 15 35 L 17 35.5 Q 10.4 42.8 9 54 L 7 53.5 L 10 47.5 Q 7.5 46 11 44.5 L 15 35 Z " /><path fill="rgb(227,239,212)" stroke="rgb(227,239,212)" stroke-width="1" opacity="0.9921568627450981" d="M 14 50 Q 17.8 48.5 17 51.5 Q 12.9 57.9 13.5 69 Q 11.3 68.3 12 64.5 L 12 62.5 L 13 59.5 L 12 57.5 L 14 50 Z " /><path fill="rgb(227,239,212)" stroke="rgb(227,239,212)" stroke-width="1" opacity="0.9921568627450981" d="M 7.5 55 L 8 57.5 L 7 57.5 L 7.5 55 Z " /><path fill="rgb(227,239,212)" stroke="rgb(227,239,212)" stroke-width="1" opacity="0.9921568627450981" d="M 6.5 59 L 7 67.5 L 6 67.5 L 6.5 59 Z " /><path fill="rgb(227,239,212)" stroke="rgb(227,239,212)" stroke-width="1" opacity="0.9921568627450981" d="M 12 72 L 14 72.5 L 14 127.5 L 12 126.5 L 12 72 Z " /><path fill="rgb(227,239,212)" stroke="rgb(227,239,212)" stroke-width="1" opacity="0.9921568627450981" d="M 285 72 L 287 72.5 L 287 128.5 L 285 127.5 L 285 72 Z " /><path fill="rgb(227,239,212)" stroke="rgb(227,239,212)" stroke-width="1" opacity="0.9921568627450981" d="M 12.5 131 Q 15.5 130.5 14 137.5 L 14 139.5 L 20 157 Q 23 155.8 22 159.5 L 27.5 166 L 33 169 L 34.5 172 L 37 172 L 37 174 Q 40.7 172.5 40 175.5 L 42 175.5 Q 41.3 177.8 43.5 177 L 45.5 178 Q 47 175.5 48.5 179 L 60.5 181 L 63.5 180 L 65 183 L 49.5 182 L 31 173 L 28.5 169 L 26 167.5 L 19 158.5 L 15 150.5 Q 15 144.5 12 141.5 L 12 134.5 L 13 132.5 L 12.5 131 Z " /><path fill="rgb(227,239,212)" stroke="rgb(227,239,212)" stroke-width="1" opacity="0.9921568627450981" d="M 286.5 131 L 287 140.5 L 280 159.5 L 270.5 171 L 263.5 176 L 261 176 Q 262.3 179 258.5 178 L 250.5 182 L 239.5 183 Q 236.5 181.5 239.5 180 L 241.5 181 L 243.5 180 Q 245 182.5 246.5 179 L 248.5 180 L 253 179 Q 251.9 176.3 254.5 177 L 264 173 Q 262.9 170.3 265.5 171 L 276 160.5 L 276 159 Q 279 160.3 278 156.5 L 281 153.5 L 281 150.5 L 286 137.5 L 285 134.5 L 286.5 131 Z " /><path fill="rgb(227,239,212)" stroke="rgb(227,239,212)" stroke-width="1" opacity="0.9921568627450981" d="M 6.5 132 L 7 135.5 L 6 135.5 L 6.5 132 Z " /><path fill="rgb(228,240,213)" stroke="rgb(228,240,213)" stroke-width="1" opacity="1" d="M 55.5 10 L 56 12 L 62.5 12 L 63.5 10 L 237 10 L 237.5 12 L 244 12 L 244.5 10 L 249 13 L 249.5 11 L 251 14 L 264 18 Q 262.8 21 266.5 20 L 277 28.5 L 281.5 34 L 284 35.5 Q 281.8 36.8 284.5 38 L 286 38.5 L 284 39.5 L 290 49.5 L 290 51.5 L 291 56.5 L 293 58.5 L 293 63.5 L 292 65.5 L 293 66.5 L 293 131.5 Q 290.3 133.3 292 139.5 L 292 141.5 L 291 143.5 Q 293.5 145 290 146.5 L 291 149.5 L 286 157.5 L 286.5 159 L 284 160.5 L 281 168 L 277 169.5 L 277.5 171 L 274.5 173 L 268.5 178 L 266 178 Q 267.8 182.5 262.5 181 L 257 184.5 L 256.5 186 Q 254.5 182 252.5 186 Q 249.2 184.9 250 187.5 L 248.5 187 L 244.5 189 L 244.5 187 Q 242.3 186.3 243 188.5 L 241.5 188 L 239.5 187 L 237 187.5 L 236.5 189 L 62.5 189 L 59.5 187 L 53.5 187 L 51.5 186 L 49 187.5 L 48.5 185 L 46 186 Q 47.1 183.3 44.5 184 L 43 184.5 Q 43.9 181.5 39.5 183 L 36 182 Q 37.1 179.3 34.5 180 L 34.5 182 L 32 178 L 29.5 177 Q 28.3 179.3 27 176.5 Q 29.3 175.3 26.5 174 L 24 172.5 Q 24.8 169.9 21.5 171 Q 23.2 168.7 19 166.5 Q 19.8 164.3 17.5 165 L 14.5 160 Q 11.5 160.9 13 156.5 L 6 138.5 L 7 135.5 L 6 131.5 L 6 68.5 L 7 67.5 L 7 59.5 L 6 57.5 L 8 57.5 L 7 54.5 L 9 54 L 10 48.5 L 9.5 47 L 11 47.5 L 10 44.5 L 12 44.5 L 17 35.5 L 16.5 34 L 20 31.5 L 21.5 29 L 29 23.5 Q 28.2 20.9 31.5 22 L 35 20 L 34 17.5 L 36 17.5 L 36.5 16 L 37 18 L 43 16 L 43.5 13 L 44 15 L 48 13.5 L 45 12.5 L 47.5 12 L 53 13 L 53.5 11 L 55 11.5 L 55.5 10 Z M 55 16 L 52 18 L 50 17 L 47 19 L 44 20 Q 40 19 41 22 L 40 21 L 39 23 L 36 24 Q 33 23 34 26 L 31 26 L 31 28 L 29 29 L 20 40 Q 21 42 18 41 L 16 47 L 18 49 L 22 40 L 25 38 L 28 32 L 45 22 L 55 19 L 63 19 L 63 17 L 56 17 L 55 16 Z M 70 16 Q 67 18 70 19 L 231 19 L 231 18 L 230 16 L 70 16 Z M 238 16 L 236 18 L 238 19 L 251 20 L 260 24 L 263 27 Q 266 26 265 29 L 269 30 L 275 38 Q 274 40 277 39 L 282 49 Q 281 53 284 52 L 285 63 L 286 66 L 285 68 L 287 69 L 287 59 L 285 51 L 277 36 L 265 25 L 262 22 L 261 23 L 251 18 Q 245 20 246 16 L 244 17 Q 239 18 238 16 Z M 14 50 L 12 58 L 13 60 L 12 63 L 12 65 Q 11 68 14 69 Q 13 58 17 52 Q 18 48 14 50 Z M 12 72 L 12 127 L 14 128 L 14 73 L 12 72 Z M 285 72 L 285 128 L 287 129 L 287 73 L 285 72 Z M 13 131 L 13 133 L 12 135 L 12 142 Q 15 144 15 151 L 19 159 L 26 168 L 29 169 L 31 173 L 50 182 L 65 183 L 64 180 L 61 181 L 49 179 Q 47 175 46 178 L 44 177 Q 41 178 42 176 L 40 176 Q 41 172 37 174 L 37 172 L 35 172 L 33 169 L 28 166 L 22 160 Q 23 156 20 157 L 14 140 L 14 138 Q 15 130 13 131 Z M 287 131 L 285 135 L 286 138 L 281 151 L 281 154 L 278 157 Q 279 160 276 159 L 276 161 L 266 171 Q 263 170 264 173 L 255 177 Q 252 176 253 179 L 249 180 L 247 179 Q 245 182 244 180 L 242 181 L 240 180 Q 237 182 240 183 L 251 182 L 259 178 Q 262 179 261 176 L 264 176 L 271 171 L 280 160 L 287 141 L 287 131 Z " /></svg>