<svg width="300" height="200" version="1.1" xmlns="http://www.w3.org/2000/svg" desc="Created with imagetracer.js version 1.2.6" ><path fill="rgb(6,10,3)" stroke="rgb(6,10,3)" stroke-width="1" opacity="0.0392156862745098" d="M 0 0 L 300 0 L 300 200 L 0 200 L 0 0 Z M 56 10 L 44 13 L 30 21 Q 12 33 7 58 L 7 142 Q 10 156 18 167 Q 31 184 56 189 L 247 189 Q 263 186 274 177 Q 290 164 295 140 L 295 61 Q 292 43 283 32 Q 271 15 247 10 L 56 10 Z " /><path fill="rgb(85,137,52)" stroke="rgb(85,137,52)" stroke-width="1" opacity="0.996078431372549" d="M 55.5 10 L 63.5 10 L 64 12 L 54.5 12 Q 45.5 13.5 39.5 18 L 36 18 Q 37.1 20.7 34.5 20 L 24 27 L 12 45.5 L 8 58.5 L 7.5 68 L 7 57.5 Q 12.3 33.3 29.5 21 L 43.5 13 L 55.5 10 Z " /><path fill="rgb(85,137,52)" stroke="rgb(85,137,52)" stroke-width="1" opacity="0.996078431372549" d="M 234.5 10 L 236 10.5 L 236 18 L 66.5 18 L 66 16 L 234.5 16 Q 235.5 16 235 11.5 L 234.5 10 Z " /><path fill="rgb(85,137,52)" stroke="rgb(85,137,52)" stroke-width="1" opacity="0.996078431372549" d="M 237.5 10 L 246.5 10 L 258.5 13 Q 273.4 19.6 283 31.5 Q 292.1 42.9 295 60.5 L 295 139.5 Q 290.1 164.1 273.5 177 Q 262.9 185.9 246.5 189 L 55.5 189 Q 30.5 184 18 166.5 L 9 149.5 L 7 141.5 L 7 132.5 L 8 132.5 L 8 141.5 L 18 165 L 21 166.5 L 26.5 173 L 29 174.5 Q 28.3 176.8 30.5 176 L 44.5 184 L 64.5 188 L 237.5 188 L 238.5 187 L 250.5 186 L 252 186.5 Q 251.2 183.9 254.5 185 L 264.5 181 L 269.5 177 L 271 177.5 L 274.5 173 L 279 169.5 L 280.5 167 Q 282.8 167.8 282 165.5 L 288 157.5 L 294 139.5 L 294 137.5 L 293 134.5 L 294 133.5 L 294 66.5 L 294 64.5 L 291 48.5 Q 285.6 34.9 275.5 26 L 264.5 18 L 257.5 15 L 247.5 12 L 238.5 12 L 237.5 10 Z " /><path fill="rgb(85,137,52)" stroke="rgb(85,137,52)" stroke-width="1" opacity="0.996078431372549" d="M 55.5 16 L 63.5 16 L 64 18.5 L 61.5 19 Q 42.8 19.8 33.5 30 L 32 29.5 L 26 38 Q 23.3 36.9 24 39.5 Q 17.7 47.3 15 58.5 L 15 139.5 L 18 149.5 L 24 161 Q 26.7 159.9 26 162.5 L 27 165 L 33 168 Q 31.9 170.7 34.5 170 L 45.5 177 L 55.5 180 L 64.5 180 L 66 181.5 L 65.5 183 L 55.5 183 Q 37.6 178.9 27 167.5 L 18 154.5 L 13 139.5 L 14 137.5 L 13 133.5 L 14 132.5 L 14 68.5 L 13 64.5 L 14 62.5 L 13 58.5 Q 17.7 39.2 30.5 28 Q 40.3 19.3 55.5 16 Z " /><path fill="rgb(85,137,52)" stroke="rgb(85,137,52)" stroke-width="1" opacity="0.996078431372549" d="M 238 16 L 246.5 16 L 256.5 19 L 267.5 25 L 275 31.5 Q 284.2 41.8 288 57.5 L 288 141.5 L 281 159.5 L 272.5 170 Q 261.6 181.6 240.5 183 L 238 182 L 238.5 180 L 246.5 180 Q 265.6 175.6 276 162.5 L 283 151.5 L 287 136.5 L 286 134.5 L 287 128 L 232.5 128 L 232 126 L 287 126 L 287 68.5 L 286 66.5 L 287 62.5 L 286 60.5 L 286 58.5 Q 286.6 52.4 283 50.5 L 283 48.5 Q 278.4 37.1 269.5 30 L 256.5 22 L 246.5 19 L 238 19 L 238 16 Z " /><path fill="rgb(86,138,53)" stroke="rgb(86,138,53)" stroke-width="1" opacity="1" d="M 64 10 L 233.5 10 L 235 11.5 Q 235.5 16 234.5 16 L 66.5 16 L 66 18 L 235.5 18 L 236 17.5 L 236 10.5 L 238.5 12 L 247.5 12 L 264.5 18 L 279 29.5 Q 286.6 37.4 291 48.5 L 294 64.5 L 294 66.5 L 294 133.5 L 293 135.5 L 294 137.5 L 293 140.5 L 291 150.5 L 282 167 L 279 168.5 L 275.5 173 L 271 176.5 L 270.5 178 Q 269 175.5 267.5 179 L 257.5 184 L 252 185 L 251.5 187 L 248.5 186 L 237.5 188 L 64.5 188 L 44.5 184 L 29 176 L 27.5 173 L 21 167.5 L 19.5 165 Q 17.3 165.8 18 163.5 L 14 157.5 L 8 141.5 L 8 132.5 L 7 131.5 L 7 68.5 L 8 67.5 L 8 58.5 L 12 45.5 L 24 27 L 36 20 Q 34.7 16.7 39.5 18 Q 48.5 11.2 64 12 L 64 10 Z M 56 16 Q 40 19 31 28 Q 18 39 13 59 L 14 63 L 13 65 L 14 69 L 14 133 L 13 134 L 14 138 L 13 140 L 18 155 L 27 168 Q 38 179 56 183 L 66 183 L 66 182 L 65 180 L 56 180 L 46 177 L 35 170 Q 32 171 33 168 L 27 165 L 26 163 Q 27 160 24 161 L 18 150 L 15 140 L 15 59 Q 18 47 24 40 Q 23 37 26 38 L 32 30 L 34 30 Q 43 20 62 19 L 64 19 L 64 16 L 56 16 Z M 238 16 L 238 19 L 247 19 L 257 22 L 270 30 Q 278 37 283 49 L 283 51 Q 287 52 286 59 L 286 61 L 287 63 L 286 67 L 287 69 L 287 126 L 232 126 L 233 128 L 287 128 L 286 135 L 287 137 L 283 152 L 276 163 Q 266 176 247 180 L 239 180 L 238 182 L 241 183 Q 262 182 273 170 L 281 160 L 288 142 L 288 58 Q 284 42 275 32 L 268 25 L 257 19 L 247 16 L 238 16 Z " /></svg>