<svg width="300" height="200" version="1.1" xmlns="http://www.w3.org/2000/svg" desc="Created with imagetracer.js version 1.2.6" ><path fill="rgb(6,10,3)" stroke="rgb(6,10,3)" stroke-width="1" opacity="0.054901960784313725" d="M 0 0 L 300 0 L 300 200 L 0 200 L 0 0 Z M 54 11 Q 36 14 26 24 Q 10 37 5 61 L 5 140 L 9 155 L 18 170 Q 30 186 55 190 L 245 190 Q 261 187 272 178 Q 288 166 293 142 L 293 61 Q 290 43 281 33 Q 269 16 245 11 L 54 11 Z " /><path fill="rgb(68,109,41)" stroke="rgb(68,109,41)" stroke-width="1" opacity="0.996078431372549" d="M 53.5 11 L 244.5 11 Q 268.7 15.8 281 32.5 Q 292.5 45 293 68.5 L 292 68.5 L 292 60.5 L 289 49.5 Q 283.6 35.9 273.5 27 L 262.5 19 L 255.5 16 L 245.5 13 Q 237.3 14.1 234 12 L 234 19.5 L 233.5 20 L 64 20 Q 62.7 16.7 67.5 18 L 68.5 17 L 229.5 17 L 233 18 L 233 12.5 L 232.5 12 L 62.5 12 L 61.5 13 L 48.5 14 L 35.5 19 L 22 29.5 Q 22.8 31.8 20.5 31 L 12 42.5 Q 12.2 47.7 9 49.5 L 10 50.5 L 8 54.5 L 6 64.5 L 7 67.5 L 6 68.5 L 6 132.5 L 7 133.5 L 7 143.5 L 13 159.5 L 24.5 174 L 43.5 186 L 45.5 186 L 62.5 189 L 235.5 189 L 236.5 188 L 249.5 187 L 262.5 182 L 278 169.5 L 280 166.5 Q 291.5 154.5 292.5 132 L 293 141.5 Q 288.2 165.7 271.5 178 Q 261.1 187.1 244.5 190 L 54.5 190 Q 30.2 185.8 18 169.5 L 9 154.5 L 5 139.5 L 5 60.5 Q 9.7 36.7 25.5 24 Q 36.2 14.2 53.5 11 Z " /><path fill="rgb(68,109,41)" stroke="rgb(68,109,41)" stroke-width="1" opacity="0.996078431372549" d="M 53.5 17 L 61.5 17 L 63 18.5 L 62.5 20 L 53.5 20 L 41.5 24 L 30 31 L 27.5 35 Q 25.3 34.3 26 36.5 Q 21.3 37.9 22 43 Q 19.3 41.9 20 44.5 L 16 51.5 L 13 72.5 L 14 73.5 L 14 127.5 L 13 131.5 L 14 132.5 L 14 141.5 L 17 151.5 Q 21.6 161.9 29.5 169 L 43.5 178 L 53.5 181 L 63.5 181 L 65 182.5 L 63.5 184 L 53.5 184 Q 35.6 179.9 25 168.5 Q 15.6 158.4 12 142.5 L 12 57.5 Q 16.6 39.6 28.5 29 Q 38.3 20.3 53.5 17 Z " /><path fill="rgb(68,109,41)" stroke="rgb(68,109,41)" stroke-width="1" opacity="0.996078431372549" d="M 236 17 L 244.5 17 L 254.5 20 Q 266.2 24.8 274 33.5 L 284 49.5 L 287 59.5 L 287 69.5 L 286 72.5 L 287 73.5 L 287 128.5 L 286 131.5 L 287 134.5 Q 288.3 139.2 286 140.5 L 287 142.5 L 285 146.5 L 283 154.5 L 275 167 Q 272.3 165.9 273 168.5 L 257.5 180 L 249.5 183 L 238 184 Q 236.3 179.9 240.5 181 L 242.5 182 L 260.5 175 L 274 163.5 Q 280.8 155.8 284 144.5 L 285 130 L 230.5 130 L 230 128 L 285 128 L 285 60.5 Q 280.6 41.4 267.5 31 L 254.5 23 L 244.5 20 L 236 20 L 236 17 Z " /><path fill="rgb(69,110,42)" stroke="rgb(69,110,42)" stroke-width="1" opacity="1" d="M 62.5 12 L 232.5 12 L 233 12.5 L 233 18 L 229.5 17 L 68.5 17 L 64 18 L 64.5 20 L 234 20 L 234 12.5 L 235.5 12 L 236.5 13 L 249.5 14 L 262.5 19 L 277 30.5 Q 288.1 41.9 292 60.5 L 292 68.5 L 293 69.5 L 293 131.5 L 292 132.5 L 292 141.5 L 289 151.5 L 280 168 Q 277.3 166.9 278 169.5 L 262.5 182 L 249.5 187 L 236.5 188 L 235.5 189 L 62.5 189 L 61.5 188 L 48.5 187 L 44.5 185 Q 43 187.5 41.5 184 Q 28.3 179.3 20 169.5 L 14 161.5 L 7 143.5 L 7 133.5 L 6 132.5 L 6 68.5 L 7 65.5 L 7 63.5 Q 6.3 56.8 9 53.5 L 8 52.5 L 11 47.5 L 12 42.5 L 20.5 31 Q 22.8 31.8 22 29.5 L 35.5 19 L 48.5 14 L 61.5 13 L 62.5 12 Z M 54 17 Q 38 20 29 29 Q 17 40 12 58 L 12 143 Q 16 158 25 169 Q 36 180 54 184 L 64 184 L 65 183 L 64 181 L 54 181 L 44 178 L 30 169 Q 22 162 17 152 L 14 142 L 14 133 L 13 132 L 14 128 L 14 74 L 13 73 L 16 52 L 20 45 Q 19 42 22 43 Q 21 38 26 37 Q 25 34 28 35 L 30 31 L 42 24 L 54 20 L 63 20 L 63 19 L 62 17 L 54 17 Z M 236 17 L 236 20 L 245 20 L 255 23 L 268 31 Q 281 41 285 61 L 285 128 L 230 128 L 231 130 L 285 130 L 284 145 Q 281 156 274 164 L 261 175 L 243 182 L 241 181 Q 236 180 238 184 L 250 183 L 258 180 L 273 169 Q 272 166 275 167 L 283 155 L 285 147 L 287 143 L 286 141 Q 288 139 287 135 L 286 132 L 287 129 L 287 74 L 286 73 L 287 70 L 287 60 L 284 50 L 274 34 Q 266 25 255 20 L 245 17 L 236 17 Z " /></svg>