<svg width="300" height="200" version="1.1" xmlns="http://www.w3.org/2000/svg" desc="Created with imagetracer.js version 1.2.6" ><path fill="rgb(5,7,4)" stroke="rgb(5,7,4)" stroke-width="1" opacity="0.011764705882352941" d="M 0 0 L 300 0 L 300 200 L 0 200 L 0 0 Z M 56 12 L 44 15 L 30 23 Q 12 35 7 60 L 7 144 L 14 163 L 29 181 L 31 180 L 42 187 L 51 190 L 64 191 L 65 192 L 238 192 L 239 191 L 248 191 L 257 189 Q 269 184 278 176 Q 291 164 295 143 L 295 61 Q 292 45 284 35 Q 272 17 247 12 L 56 12 Z " /><path fill="rgb(174,211,132)" stroke="rgb(174,211,132)" stroke-width="1" opacity="0.9921568627450981" d="M 55.5 12 L 246.5 12 L 262.5 17 L 272.5 23 L 278 28.5 Q 277.3 30.8 279.5 30 Q 287.1 36.4 291 46.5 L 295 60.5 L 295 69.5 L 294 69.5 L 294 61.5 L 291 50.5 Q 285.6 36.9 275.5 28 L 266 22 Q 267.3 18.7 262.5 20 Q 257.3 15.7 248.5 15 L 246.5 13 Q 244.8 15.8 238.5 14 L 237.5 13 L 64.5 13 L 63.5 14 L 50.5 15 L 37.5 20 L 20 34.5 L 16 42 Q 13 40.8 14 44.5 L 8 60.5 L 8 142.5 L 17 166 L 22 169.5 L 23 173 L 36 181 Q 34.7 184.3 39.5 183 L 45.5 187 L 47 186.5 L 47.5 188 L 49.5 187 Q 51 190.5 52.5 188 Q 56.3 187 55 190 L 58.5 190 L 64 189 L 64.5 191 L 238 191 Q 236.9 188.3 239.5 189 L 241.5 189 Q 246.3 187.8 247.5 190 L 248 188 L 250.5 189 Q 252 185.5 253.5 188 L 260.5 184 L 262 184.5 Q 261.2 181.9 264.5 183 L 272 179 L 274.5 175 L 278 174 L 279 170 L 282 168.5 Q 281.3 165.9 284 167 L 284 164.5 L 286.5 161 Q 289.8 162.8 286 164.5 L 277.5 176 L 268.5 183 L 267 182.5 Q 267.8 184.8 265.5 184 L 260.5 187 L 259 186.5 Q 259.8 188.8 257.5 188 L 252.5 190 L 238.5 191 L 237.5 192 L 64.5 192 L 63.5 191 L 50.5 190 L 41.5 187 L 31 180.5 Q 31.8 177.9 28.5 179 Q 12.1 166.9 7 143.5 L 7 59.5 Q 12.3 35.3 29.5 23 L 44.5 15 L 46 15.5 Q 45.1 12.5 49.5 14 L 55.5 12 Z " /><path fill="rgb(174,211,132)" stroke="rgb(174,211,132)" stroke-width="1" opacity="0.9921568627450981" d="M 55.5 18 L 57.5 19 L 59.5 18 L 61.5 19 L 64 18 L 64 21 L 55.5 21 Q 36.4 25.4 26 38.5 Q 15.2 49.7 14.5 71 L 14 58.5 L 17 48.5 L 21 43.5 L 21 41 Q 24 42.3 23 38.5 L 29.5 31 Q 39.6 21.6 55.5 18 Z " /><path fill="rgb(174,211,132)" stroke="rgb(174,211,132)" stroke-width="1" opacity="0.9921568627450981" d="M 238 18 L 240.5 19 Q 241.8 16.8 246.5 18 L 261 23 L 261.5 25 L 263.5 25 L 268 27 L 269.5 31 L 271.5 30 L 279 38.5 L 285 49.5 L 288 59.5 L 288 70.5 L 287 70.5 L 287 61.5 L 284 51.5 Q 278.8 39.7 269.5 32 L 256.5 24 L 246.5 21 L 238 21 L 238 18 Z " /><path fill="rgb(174,211,132)" stroke="rgb(174,211,132)" stroke-width="1" opacity="0.9921568627450981" d="M 70 19 L 231.5 19 L 232 21 L 70.5 21 L 70 19 Z " /><path fill="rgb(174,211,132)" stroke="rgb(174,211,132)" stroke-width="1" opacity="0.9921568627450981" d="M 14.5 73 L 15 129.5 L 14 129.5 L 14.5 73 Z " /><path fill="rgb(174,211,132)" stroke="rgb(174,211,132)" stroke-width="1" opacity="0.9921568627450981" d="M 287.5 73 L 288 130.5 L 287 130.5 L 287.5 73 Z " /><path fill="rgb(174,211,132)" stroke="rgb(174,211,132)" stroke-width="1" opacity="0.9921568627450981" d="M 14.5 132 L 15 141.5 L 19 154.5 L 30.5 169 L 45.5 179 L 55.5 182 L 66 182 L 65.5 185 L 55.5 185 Q 37.6 180.9 27 169.5 Q 13.5 157 14.5 132 Z " /><path fill="rgb(174,211,132)" stroke="rgb(174,211,132)" stroke-width="1" opacity="0.9921568627450981" d="M 287.5 133 L 288 143.5 Q 283.7 162.2 271.5 173 L 261.5 180 L 251.5 184 L 240 185 L 240 182 L 246.5 182 L 254.5 179 Q 256 181.5 257.5 178 L 267.5 172 L 269 172.5 L 273.5 167 Q 275.8 167.8 275 165.5 Q 286.5 154.5 287.5 133 Z " /><path fill="rgb(174,211,132)" stroke="rgb(174,211,132)" stroke-width="1" opacity="0.9921568627450981" d="M 294.5 133 L 295 142.5 L 293 151.5 L 288.5 161 L 288 158.5 Q 294.4 148.9 294.5 133 Z " /><path fill="rgb(175,212,133)" stroke="rgb(175,212,133)" stroke-width="1" opacity="1" d="M 64.5 13 L 237.5 13 Q 239.3 15.8 245.5 14 Q 247 11.5 248.5 15 L 266 20 Q 264.9 22.7 267.5 22 L 277.5 30 L 279 29.5 L 279 31.5 Q 286.5 39 290.5 50 L 292 49.5 L 291 52.5 L 294 61.5 L 294 69.5 L 295 70.5 L 295 132.5 L 294 133.5 L 293 146.5 L 287.5 162 L 286 161.5 L 284 167 Q 281.3 165.9 282 168.5 L 279 170 L 278 174 L 272 177.5 Q 272.8 179.8 270.5 179 L 264.5 183 L 262 183 L 261.5 185 L 259.5 185 L 253.5 188 L 249.5 188 Q 247.3 187.3 248 189.5 L 246.5 189 Q 241.8 187.8 240.5 190 L 238 189 L 237.5 191 L 64 191 Q 65.3 187.3 59.5 189 L 55 190 Q 56.3 187 52.5 188 Q 51 190.5 49.5 187 L 47.5 188 L 46.5 186 Q 45 188.5 43.5 185 L 36 183 Q 37.1 180.3 34.5 181 L 31.5 179 L 29 180.5 Q 28.3 178.3 30.5 179 L 27.5 175 L 23 173 Q 22.6 168.3 18.5 166 Q 15.9 166.8 17 163.5 L 14 159.5 L 8 142.5 L 8 60.5 L 14 42 Q 16.7 43.1 16 40.5 L 26.5 28 Q 33.7 20.7 44.5 17 L 54.5 14 L 63.5 14 L 64.5 13 Z M 56 18 Q 40 22 30 31 L 23 39 Q 24 42 21 41 L 21 44 L 17 49 L 14 59 L 15 71 Q 15 50 26 39 Q 36 25 56 21 L 64 21 L 64 18 L 62 19 L 60 18 L 58 19 L 56 18 Z M 238 18 L 238 21 L 247 21 L 257 24 L 270 32 Q 279 40 284 52 L 287 62 L 287 71 L 288 71 L 288 60 L 285 50 L 279 39 L 272 30 L 270 31 L 268 27 L 264 25 L 262 25 L 261 23 L 247 18 Q 242 17 241 19 L 238 18 Z M 70 19 L 71 21 L 232 21 L 232 19 L 70 19 Z M 15 73 L 14 130 L 15 130 L 15 73 Z M 288 73 L 287 131 L 288 131 L 288 73 Z M 15 132 Q 13 157 27 170 Q 38 181 56 185 L 66 185 L 66 182 L 56 182 L 46 179 L 31 169 L 19 155 L 15 142 L 15 132 Z M 288 133 Q 286 154 275 166 Q 276 168 274 167 L 269 173 L 268 172 L 258 178 Q 256 181 255 179 L 247 182 L 240 182 L 240 185 L 252 184 L 262 180 L 272 173 Q 284 162 288 144 L 288 133 Z " /></svg>