<svg width="300" height="200" version="1.1" xmlns="http://www.w3.org/2000/svg" desc="Created with imagetracer.js version 1.2.6" ><path fill="rgb(4,6,2)" stroke="rgb(4,6,2)" stroke-width="1" opacity="0.011764705882352941" d="M 0 0 L 300 0 L 300 200 L 0 200 L 0 0 Z M 57 10 L 45 13 L 31 21 Q 13 33 8 58 L 8 142 Q 11 156 19 167 Q 31 184 56 189 L 249 189 Q 263 186 274 178 Q 291 166 296 141 L 296 60 L 292 45 L 284 32 Q 272 15 248 10 L 57 10 Z " /><path fill="rgb(124,177,72)" stroke="rgb(124,177,72)" stroke-width="1" opacity="0.9921568627450981" d="M 56.5 10 L 247.5 10 Q 271.7 14.8 284 31.5 L 292 44.5 L 296 59.5 L 296 140.5 Q 291.1 165.6 273.5 178 Q 263.4 185.9 248.5 189 L 55.5 189 Q 31.3 183.7 19 166.5 Q 10.8 156.2 8 140.5 L 9 140.5 L 13 153.5 L 15 155.5 L 15 159 Q 17.7 157.9 17 160.5 L 19 165 Q 21.7 163.9 21 166.5 L 23 170 L 26 171.5 Q 25.3 173.8 27.5 173 L 32 176.5 L 32.5 178 L 34 177.5 L 35.5 180 Q 37 177.5 38.5 181 L 45 183 L 45.5 185 L 48 184 L 48.5 186 L 55.5 186 L 58.5 188 L 61.5 187 L 63.5 187 L 65.5 188 L 238.5 188 L 247.5 187 L 254.5 186 L 264.5 181 L 265.5 182 L 270.5 177 L 272 177.5 L 274.5 174 L 279 172 L 281.5 167 Q 283.8 167.8 283 165.5 L 289 157.5 L 295 140.5 L 295 59.5 Q 290.4 38.1 276.5 26 L 269 20.5 L 268.5 19 Q 267 21.5 265.5 18 L 252.5 13 L 239.5 12 L 238.5 11 L 65.5 11 L 64.5 12 L 51.5 13 L 34 20 Q 35.1 22.7 32.5 22 L 21 32.5 Q 9.6 45.1 8.5 68 L 8 57.5 Q 13.3 33.3 30.5 21 L 44.5 13 L 56.5 10 Z " /><path fill="rgb(124,177,72)" stroke="rgb(124,177,72)" stroke-width="1" opacity="0.9921568627450981" d="M 57.5 16 L 65 16 L 65 19 L 56.5 19 L 46.5 22 Q 34.7 27.2 27 36.5 Q 16.2 47.7 15.5 69 L 15 56.5 L 18 46.5 L 24 36 Q 26.7 37.1 26 34.5 L 31.5 28 L 44.5 20 L 57.5 16 Z " /><path fill="rgb(124,177,72)" stroke="rgb(124,177,72)" stroke-width="1" opacity="0.9921568627450981" d="M 71 16 L 232.5 16 L 233 19 L 71.5 19 L 71 16 Z " /><path fill="rgb(124,177,72)" stroke="rgb(124,177,72)" stroke-width="1" opacity="0.9921568627450981" d="M 239 16 L 253 17 L 253.5 19 L 254.5 18 Q 256.3 21.1 258 19.5 L 258.5 21 Q 260 18.5 261.5 22 Q 267.3 22.7 270 26.5 Q 269.3 28.8 271.5 28 L 276 31.5 L 286 47.5 L 289 57.5 L 289 68.5 L 288 68.5 L 288 59.5 L 285 49.5 Q 279.8 37.7 270.5 30 L 257.5 22 L 247.5 19 L 239 19 L 239 16 Z " /><path fill="rgb(124,177,72)" stroke="rgb(124,177,72)" stroke-width="1" opacity="0.9921568627450981" d="M 15.5 71 L 16 127.5 L 15 127.5 L 15.5 71 Z " /><path fill="rgb(124,177,72)" stroke="rgb(124,177,72)" stroke-width="1" opacity="0.9921568627450981" d="M 288.5 71 L 289 128.5 L 288 128.5 L 288.5 71 Z " /><path fill="rgb(124,177,72)" stroke="rgb(124,177,72)" stroke-width="1" opacity="0.9921568627450981" d="M 15.5 130 L 17 143.5 L 25 161 Q 27.7 159.9 27 162.5 L 35.5 171 L 37 171 L 37.5 173 Q 39 170.5 40.5 174 Q 46.5 178 55.5 179 L 57.5 181 L 58.5 180 L 67 180 L 66.5 183 L 56.5 183 Q 38.6 178.9 28 167.5 Q 14.5 155 15.5 130 Z " /><path fill="rgb(124,177,72)" stroke="rgb(124,177,72)" stroke-width="1" opacity="0.9921568627450981" d="M 8.5 131 L 9 138.5 L 8 138.5 L 8.5 131 Z " /><path fill="rgb(124,177,72)" stroke="rgb(124,177,72)" stroke-width="1" opacity="0.9921568627450981" d="M 288.5 131 L 289 141.5 Q 284.7 160.2 272.5 171 L 262.5 178 L 252.5 182 L 241 183 L 241 180 L 247.5 180 L 253.5 178 L 255 178.5 Q 254.3 176.3 256.5 177 L 257.5 178 Q 259.7 173.7 262 175.5 Q 261.3 173.3 263.5 174 L 274 167 L 285 150.5 L 288 139.5 L 288.5 131 Z " /><path fill="rgb(125,178,73)" stroke="rgb(125,178,73)" stroke-width="1" opacity="1" d="M 65.5 11 L 238.5 11 L 239.5 12 L 252.5 13 L 265.5 18 L 267.5 20 L 269 19.5 L 271.5 23 L 280 29.5 Q 291.1 40.9 295 59.5 L 295 140.5 Q 291.2 156.6 283 167 L 280 168.5 L 279 172 L 272 176.5 L 271.5 178 L 270.5 177 L 265.5 182 Q 264 179.5 262.5 183 Q 256.5 182.5 254.5 186 L 249.5 186 L 246.5 188 L 238.5 188 L 65.5 188 L 63.5 187 L 61.5 187 L 57.5 188 L 55.5 186 L 48 186 Q 49.1 183.3 46.5 184 L 45 184.5 Q 45.8 181.9 42.5 183 L 36.5 179 Q 35.3 181.3 34 178.5 L 33.5 177 L 32 177.5 L 29.5 174 L 26 173 L 24.5 170 Q 22.3 170.8 23 168.5 L 21 165 Q 18.3 166.1 19 163.5 L 17 159 Q 13.7 160.3 15 155.5 L 13 153.5 L 8 139.5 Q 10.8 137.8 9 131.5 L 8 130.5 L 8 68.5 L 9 67.5 L 9 58.5 L 13 45.5 Q 18.2 33.7 27.5 26 L 34 22 Q 32.8 19 36.5 20 L 38.5 18 L 51.5 13 L 64.5 12 L 65.5 11 Z M 58 16 L 45 20 L 32 28 L 26 35 Q 27 37 24 36 L 18 47 L 15 57 L 16 69 Q 16 48 27 37 Q 35 27 47 22 L 57 19 L 65 19 L 65 16 L 58 16 Z M 71 16 L 72 19 L 233 19 L 233 16 L 71 16 Z M 239 16 L 239 19 L 248 19 L 258 22 L 271 30 Q 280 38 285 50 L 288 60 L 288 69 L 289 69 L 289 58 L 286 48 L 276 32 L 272 28 Q 269 29 270 27 Q 267 23 262 22 Q 260 18 259 21 L 258 20 Q 256 21 255 18 L 254 19 L 253 17 L 239 16 Z M 16 71 L 15 128 L 16 128 L 16 71 Z M 289 71 L 288 129 L 289 129 L 289 71 Z M 16 130 Q 14 155 28 168 Q 39 179 57 183 L 67 183 L 67 180 L 59 180 L 58 181 L 56 179 Q 46 178 41 174 Q 39 170 38 173 L 37 171 L 36 171 L 27 163 Q 28 160 25 161 L 17 144 L 16 130 Z M 289 131 L 288 140 L 285 151 L 274 167 L 264 174 Q 261 173 262 176 Q 260 174 258 178 L 257 177 Q 254 176 255 179 L 254 178 L 248 180 L 241 180 L 241 183 L 253 182 L 263 178 L 273 171 Q 285 160 289 142 L 289 131 Z " /></svg>