<svg width="300" height="200" version="1.1" xmlns="http://www.w3.org/2000/svg" desc="Created with imagetracer.js version 1.2.6" ><path fill="rgb(7,9,5)" stroke="rgb(7,9,5)" stroke-width="1" opacity="0.10980392156862745" d="M 0 0 L 300 0 L 300 200 L 0 200 L 0 0 Z M 58 10 L 43 14 L 30 22 L 15 39 L 9 53 L 7 63 L 7 137 L 10 151 L 19 168 Q 27 178 39 184 L 49 188 L 60 190 L 245 190 L 258 187 L 275 177 Q 290 165 295 142 L 295 59 L 290 43 L 283 32 Q 275 22 265 16 L 246 10 L 58 10 Z " /><path fill="rgb(7,9,5)" stroke="rgb(7,9,5)" stroke-width="1" opacity="0.10980392156862745" d="M 142.5 46 Q 145.1 45.3 144 48 L 140 47.5 L 142.5 46 Z " /><path fill="rgb(7,9,5)" stroke="rgb(7,9,5)" stroke-width="1" opacity="0.10980392156862745" d="M 150.5 46 L 154 46.5 L 150.5 47 L 150.5 46 Z " /><path fill="rgb(7,9,5)" stroke="rgb(7,9,5)" stroke-width="1" opacity="0.10980392156862745" d="M 159.5 47 Q 163.9 45.5 163 48.5 L 161.5 48 Q 158.5 48.5 159.5 47 Z " /><path fill="rgb(7,9,5)" stroke="rgb(7,9,5)" stroke-width="1" opacity="0.10980392156862745" d="M 132.5 49 L 135 49.5 L 131.5 51 L 132.5 49 Z " /><path fill="rgb(7,9,5)" stroke="rgb(7,9,5)" stroke-width="1" opacity="0.10980392156862745" d="M 169.5 49 L 173 50.5 L 170.5 51 L 169.5 49 Z " /><path fill="rgb(7,9,5)" stroke="rgb(7,9,5)" stroke-width="1" opacity="0.10980392156862745" d="M 125.5 52 L 126 53.5 L 122.5 55 L 122.5 54 L 125.5 52 Z " /><path fill="rgb(7,9,5)" stroke="rgb(7,9,5)" stroke-width="1" opacity="0.10980392156862745" d="M 177.5 53 L 181 54 L 180.5 56 L 177.5 53 Z " /><path fill="rgb(7,9,5)" stroke="rgb(7,9,5)" stroke-width="1" opacity="0.10980392156862745" d="M 117.5 58 L 115.5 61 L 117.5 58 Z " /><path fill="rgb(7,9,5)" stroke="rgb(7,9,5)" stroke-width="1" opacity="0.10980392156862745" d="M 185.5 58 L 187.5 61 L 185.5 58 Z " /><path fill="rgb(7,9,5)" stroke="rgb(7,9,5)" stroke-width="1" opacity="0.10980392156862745" d="M 110.5 65 L 108.5 68 L 110.5 65 Z " /><path fill="rgb(7,9,5)" stroke="rgb(7,9,5)" stroke-width="1" opacity="0.10980392156862745" d="M 192.5 65 L 195 68.5 L 192 66.5 L 192.5 65 Z " /><path fill="rgb(7,9,5)" stroke="rgb(7,9,5)" stroke-width="1" opacity="0.10980392156862745" d="M 105.5 72 L 106 73.5 L 103 75.5 L 105.5 72 Z " /><path fill="rgb(7,9,5)" stroke="rgb(7,9,5)" stroke-width="1" opacity="0.10980392156862745" d="M 197.5 73 L 198.5 75 L 197.5 73 Z " /><path fill="rgb(7,9,5)" stroke="rgb(7,9,5)" stroke-width="1" opacity="0.10980392156862745" d="M 101.5 81 L 101 82.5 L 100.5 85 L 100 82.5 L 101.5 81 Z " /><path fill="rgb(7,9,5)" stroke="rgb(7,9,5)" stroke-width="1" opacity="0.10980392156862745" d="M 161.5 86 L 165 86.5 L 165 114 L 160 113.5 L 160 89.5 L 157.5 89 L 156 89.5 Q 155.2 86.9 158.5 88 L 161.5 86 Z " /><path fill="rgb(7,9,5)" stroke="rgb(7,9,5)" stroke-width="1" opacity="0.10980392156862745" d="M 98.5 90 L 99 94.5 L 98 94.5 L 98.5 90 Z " /><path fill="rgb(7,9,5)" stroke="rgb(7,9,5)" stroke-width="1" opacity="0.10980392156862745" d="M 204.5 91 L 205 94.5 L 204 94.5 L 204.5 91 Z " /><path fill="rgb(7,9,5)" stroke="rgb(7,9,5)" stroke-width="1" opacity="0.10980392156862745" d="M 140 92 L 145 92 L 145 98 L 149.5 98 L 149.5 99 L 145 99 L 145 105 L 140 105 L 140 99 L 135.5 99 L 135.5 98 L 140 98 L 140 92 Z " /><path fill="rgb(7,9,5)" stroke="rgb(7,9,5)" stroke-width="1" opacity="0.10980392156862745" d="M 99.5 111 L 100 113.5 L 99 113.5 L 99.5 111 Z " /><path fill="rgb(7,9,5)" stroke="rgb(7,9,5)" stroke-width="1" opacity="0.10980392156862745" d="M 203.5 111 L 204 113.5 L 203 113.5 L 203.5 111 Z " /><path fill="rgb(7,9,5)" stroke="rgb(7,9,5)" stroke-width="1" opacity="0.10980392156862745" d="M 101.5 118 L 103 122.5 L 102 122.5 L 101.5 118 Z " /><path fill="rgb(7,9,5)" stroke="rgb(7,9,5)" stroke-width="1" opacity="0.10980392156862745" d="M 201.5 119 L 201 120.5 L 199.5 123 L 200 121.5 L 201.5 119 Z " /><path fill="rgb(7,9,5)" stroke="rgb(7,9,5)" stroke-width="1" opacity="0.10980392156862745" d="M 105.5 127 L 108 130.5 L 106 129.5 L 105.5 127 Z " /><path fill="rgb(7,9,5)" stroke="rgb(7,9,5)" stroke-width="1" opacity="0.10980392156862745" d="M 196.5 128 L 197 129.5 L 194 131.5 L 196.5 128 Z " /><path fill="rgb(7,9,5)" stroke="rgb(7,9,5)" stroke-width="1" opacity="0.10980392156862745" d="M 111.5 135 L 114 138.5 L 112 137.5 L 111.5 135 Z " /><path fill="rgb(7,9,5)" stroke="rgb(7,9,5)" stroke-width="1" opacity="0.10980392156862745" d="M 190.5 136 L 188.5 139 L 190.5 136 Z " /><path fill="rgb(7,9,5)" stroke="rgb(7,9,5)" stroke-width="1" opacity="0.10980392156862745" d="M 118.5 141 L 120.5 144 L 118 142.5 L 118.5 141 Z " /><path fill="rgb(7,9,5)" stroke="rgb(7,9,5)" stroke-width="1" opacity="0.10980392156862745" d="M 183.5 142 L 181.5 145 L 183.5 142 Z " /><path fill="rgb(7,9,5)" stroke="rgb(7,9,5)" stroke-width="1" opacity="0.10980392156862745" d="M 126.5 147 L 130 148.5 L 128.5 149 L 126.5 147 Z " /><path fill="rgb(7,9,5)" stroke="rgb(7,9,5)" stroke-width="1" opacity="0.10980392156862745" d="M 175.5 147 L 176 149 L 173 148.5 L 175.5 147 Z " /><path fill="rgb(7,9,5)" stroke="rgb(7,9,5)" stroke-width="1" opacity="0.10980392156862745" d="M 135.5 150 L 139 151 L 138.5 153 L 135 152 L 135.5 150 Z " /><path fill="rgb(7,9,5)" stroke="rgb(7,9,5)" stroke-width="1" opacity="0.10980392156862745" d="M 163 151 L 167 151.5 L 163.5 153 L 163 151 Z " /><path fill="rgb(7,9,5)" stroke="rgb(7,9,5)" stroke-width="1" opacity="0.10980392156862745" d="M 144 152 L 148 153.5 L 144 154 L 144 152 Z " /><path fill="rgb(7,9,5)" stroke="rgb(7,9,5)" stroke-width="1" opacity="0.10980392156862745" d="M 155.5 152 Q 159.3 151 158 154 L 154 153.5 L 155.5 152 Z " /><path fill="rgb(84,104,61)" stroke="rgb(84,104,61)" stroke-width="1" opacity="0.996078431372549" d="M 57.5 10 L 245.5 10 L 264.5 16 Q 275.4 22 283 31.5 Q 294.5 44 295 67.5 L 294 67.5 L 294 59.5 L 291 48.5 Q 285.6 34.9 275.5 26 L 264.5 18 L 257.5 15 L 247.5 12 Q 239.3 13.1 236 11 L 236 18.5 L 235.5 19 L 66 19 L 66.5 17 L 234.5 17 L 235 16.5 L 235 11 L 65.5 11 L 64.5 12 L 55.5 12 L 45.5 15 L 26 26 L 23.5 30 Q 21.3 29.3 22 31.5 L 21 34 Q 18.3 32.9 19 35.5 L 11 49.5 L 11 51.5 L 8 66.5 L 8 68.5 L 8 132.5 L 9 135.5 L 9 137.5 L 8.5 139 L 7 136.5 L 7 62.5 L 9 52.5 L 15 38.5 L 29.5 22 L 42.5 14 L 57.5 10 Z " /><path fill="rgb(84,104,61)" stroke="rgb(84,104,61)" stroke-width="1" opacity="0.996078431372549" d="M 55.5 17 L 64.5 17 L 65 19 L 56.5 19 L 46.5 22 L 38.5 26 L 27 36.5 L 25.5 39 Q 23.3 38.3 24 40.5 L 21 44.5 L 16 58.5 Q 17.3 66.8 15 71.5 L 16 72.5 L 16 127.5 L 15 130.5 L 16 131.5 L 16 140.5 L 19 150.5 L 27 162.5 L 26.5 164 Q 34.9 172.6 46.5 178 L 56.5 181 L 67 181 L 66.5 183 L 55.5 183 Q 37.6 178.9 27 167.5 Q 17.6 157.4 14 141.5 L 14 57.5 Q 18.6 39.6 30.5 29 Q 40.3 20.3 55.5 17 Z " /><path fill="rgb(84,104,61)" stroke="rgb(84,104,61)" stroke-width="1" opacity="0.996078431372549" d="M 238 17 L 247.5 17 L 257.5 20 Q 268.5 24.5 276 32.5 L 285 46.5 L 284.5 48 Q 287.1 47.2 286 50.5 L 289 58.5 L 289 68.5 L 288 71.5 L 289 72.5 L 289 127.5 L 287.5 129 L 232 129 L 232.5 127 L 287 127 L 287 59.5 Q 282.6 40.4 269.5 30 L 256.5 22 L 246.5 19 L 238 19 L 238 17 Z " /><path fill="rgb(84,104,61)" stroke="rgb(84,104,61)" stroke-width="1" opacity="0.996078431372549" d="M 142.5 45 Q 148.2 43.4 146 49 L 139 50 L 138 46 L 142.5 45 Z M 143 46 L 140 48 L 144 48 Q 145 45 143 46 Z " /><path fill="rgb(84,104,61)" stroke="rgb(84,104,61)" stroke-width="1" opacity="0.996078431372549" d="M 148 45 L 155.5 45 L 156 46.5 Q 155 50 149.5 49 L 148 45 Z M 151 46 L 151 47 L 154 47 L 151 46 Z " /><path fill="rgb(84,104,61)" stroke="rgb(84,104,61)" stroke-width="1" opacity="0.996078431372549" d="M 158 45 L 165 46 Q 167.3 52 160.5 50 L 158 49 L 158 45 Z M 160 47 Q 159 49 162 48 L 163 49 Q 164 45 160 47 Z " /><path fill="rgb(84,104,61)" stroke="rgb(84,104,61)" stroke-width="1" opacity="0.996078431372549" d="M 134.5 47 L 137 51 L 130 53 L 129 49 L 134.5 47 Z M 133 49 L 132 51 L 135 50 L 133 49 Z " /><path fill="rgb(84,104,61)" stroke="rgb(84,104,61)" stroke-width="1" opacity="0.996078431372549" d="M 167.5 47 L 174 49 Q 176.1 54.2 171.5 53 L 167 50.5 L 167.5 47 Z M 170 49 L 171 51 L 173 51 L 170 49 Z " /><path fill="rgb(84,104,61)" stroke="rgb(84,104,61)" stroke-width="1" opacity="0.996078431372549" d="M 124.5 51 L 128 52.5 Q 129.1 55.8 126.5 55 L 122.5 57 Q 118 55 121.5 53 L 124.5 51 Z M 126 52 L 123 54 L 123 55 L 126 54 L 126 52 Z " /><path fill="rgb(84,104,61)" stroke="rgb(84,104,61)" stroke-width="1" opacity="0.996078431372549" d="M 176.5 51 L 183 54 L 181.5 57 Q 175.8 57.8 175 53.5 L 176.5 51 Z M 178 53 L 181 56 L 181 54 L 178 53 Z " /><path fill="rgb(84,104,61)" stroke="rgb(84,104,61)" stroke-width="1" opacity="0.996078431372549" d="M 117.5 56 L 120 57 L 118.5 61 L 114.5 63 L 113 59 L 117.5 56 Z " /><path fill="rgb(84,104,61)" stroke="rgb(84,104,61)" stroke-width="1" opacity="0.996078431372549" d="M 184.5 57 Q 189.5 56.5 190 60.5 Q 191.3 64.7 186.5 63 L 183 58.5 L 184.5 57 Z " /><path fill="rgb(84,104,61)" stroke="rgb(84,104,61)" stroke-width="1" opacity="0.996078431372549" d="M 109 63 L 113 64.5 L 109.5 70 L 106 67.5 L 109 63 Z " /><path fill="rgb(84,104,61)" stroke="rgb(84,104,61)" stroke-width="1" opacity="0.996078431372549" d="M 192.5 63 L 197 68.5 L 193 71 L 190 65.5 L 192.5 63 Z M 193 65 L 192 67 L 195 69 L 193 65 Z " /><path fill="rgb(84,104,61)" stroke="rgb(84,104,61)" stroke-width="1" opacity="0.996078431372549" d="M 104.5 71 L 108 72.5 L 104.5 78 L 101 76.5 L 104.5 71 Z " /><path fill="rgb(84,104,61)" stroke="rgb(84,104,61)" stroke-width="1" opacity="0.996078431372549" d="M 197.5 71 L 200 72 L 202 78 L 198 79 L 196 72.5 L 197.5 71 Z " /><path fill="rgb(84,104,61)" stroke="rgb(84,104,61)" stroke-width="1" opacity="0.996078431372549" d="M 99 80 Q 102.8 79 104 81.5 L 102 87 L 98 85.5 L 99 80 Z M 101 82 L 100 85 L 101 85 L 101 82 Z " /><path fill="rgb(84,104,61)" stroke="rgb(84,104,61)" stroke-width="1" opacity="0.996078431372549" d="M 201.5 80 Q 205.3 78.8 204 82.5 L 205 87 L 202.5 88 Q 199.4 86.6 200 81.5 L 201.5 80 Z " /><path fill="rgb(84,104,61)" stroke="rgb(84,104,61)" stroke-width="1" opacity="0.996078431372549" d="M 160.5 85 Q 166.8 84.3 167 85.5 L 167 113.5 L 165.5 115 L 158 115 L 158 91.5 L 155.5 91 L 154 88.5 L 160.5 85 Z M 162 86 L 159 88 Q 155 87 156 90 L 158 89 L 160 90 L 160 114 L 165 114 L 165 87 L 162 86 Z " /><path fill="rgb(84,104,61)" stroke="rgb(84,104,61)" stroke-width="1" opacity="0.996078431372549" d="M 97 89 L 101 90.5 L 100 96 Q 94 98.3 96 91.5 L 97 89 Z M 99 90 L 98 95 L 99 95 L 99 90 Z " /><path fill="rgb(84,104,61)" stroke="rgb(84,104,61)" stroke-width="1" opacity="0.996078431372549" d="M 202 90 L 206 90 L 206 91.5 L 207 95.5 L 203 97 L 202 90 Z M 205 91 L 204 95 L 205 95 L 205 91 Z " /><path fill="rgb(84,104,61)" stroke="rgb(84,104,61)" stroke-width="1" opacity="0.996078431372549" d="M 138 91 L 146 91 L 146 97 L 152 97 L 152 99.5 Q 150.6 102.3 146 101 L 146 107 L 139.5 107 Q 136.8 105.6 138 101 Q 134.2 102 133 99.5 L 133 97 L 138 97 L 138 91 Z M 140 92 L 140 98 L 136 98 L 136 99 L 140 99 L 140 105 L 145 105 L 145 99 L 150 99 L 150 98 L 145 98 L 145 92 L 140 92 Z " /><path fill="rgb(84,104,61)" stroke="rgb(84,104,61)" stroke-width="1" opacity="0.996078431372549" d="M 96 99 Q 102.4 96.7 100 104.5 L 97.5 106 Q 94.5 104.4 96 99 Z " /><path fill="rgb(84,104,61)" stroke="rgb(84,104,61)" stroke-width="1" opacity="0.996078431372549" d="M 203 99 L 207 99 L 207 106 L 204.5 107 Q 201.3 105.1 203 99 Z " /><path fill="rgb(84,104,61)" stroke="rgb(84,104,61)" stroke-width="1" opacity="0.996078431372549" d="M 97 108 Q 102.6 105.8 101 111.5 L 102 115 Q 98.2 116 97 113.5 L 97 108 Z M 100 111 L 99 114 L 100 114 L 100 111 Z " /><path fill="rgb(84,104,61)" stroke="rgb(84,104,61)" stroke-width="1" opacity="0.996078431372549" d="M 202 109 Q 207.6 106.8 206 112.5 L 205 116 Q 199 118.3 201 111.5 L 202 109 Z M 204 111 L 203 114 L 204 114 L 204 111 Z " /><path fill="rgb(84,104,61)" stroke="rgb(84,104,61)" stroke-width="1" opacity="0.996078431372549" d="M 101.5 117 L 104 118.5 L 105 122.5 L 101 124 L 99 118 L 101.5 117 Z M 103 120 L 102 123 L 103 123 L 103 120 Z " /><path fill="rgb(84,104,61)" stroke="rgb(84,104,61)" stroke-width="1" opacity="0.996078431372549" d="M 199 118 L 204 119.5 L 200.5 125 L 197 123.5 L 199 118 Z " /><path fill="rgb(84,104,61)" stroke="rgb(84,104,61)" stroke-width="1" opacity="0.996078431372549" d="M 104.5 126 Q 108.5 125.5 109 128.5 L 110 132 L 106 133 L 103 127.5 L 104.5 126 Z " /><path fill="rgb(84,104,61)" stroke="rgb(84,104,61)" stroke-width="1" opacity="0.996078431372549" d="M 195.5 126 L 199 127 L 197 133 L 194.5 134 Q 190.2 132.3 193 130.5 L 195.5 126 Z M 197 128 L 195 131 L 197 130 L 197 128 Z " /><path fill="rgb(84,104,61)" stroke="rgb(84,104,61)" stroke-width="1" opacity="0.996078431372549" d="M 287 131 L 289 131.5 L 289 141.5 Q 286.1 154.3 280 163 Q 277.3 161.9 278 164.5 L 273.5 170 Q 261.4 182.7 238 183 L 238.5 181 L 246.5 181 Q 265.6 176.6 276 163.5 Q 287 152.3 287 131 Z " /><path fill="rgb(84,104,61)" stroke="rgb(84,104,61)" stroke-width="1" opacity="0.996078431372549" d="M 294.5 132 L 295 141.5 Q 290.5 165 274.5 177 L 257.5 187 L 244.5 190 L 59.5 190 L 48.5 188 L 38.5 184 Q 27 177.6 19 167.5 Q 11.8 158.7 9 145.5 L 11 146.5 L 12 149.5 Q 9.5 151 13 152.5 Q 17.3 166.2 27.5 174 L 30 175.5 Q 29.3 177.8 31.5 177 L 37 180 Q 35.7 183.3 40.5 182 L 51.5 187 L 64.5 188 L 65.5 189 L 237.5 189 L 238.5 188 L 251.5 187 L 264.5 182 L 279 170.5 L 280.5 168 Q 282.8 168.8 282 166.5 Q 293.5 154.5 294.5 132 Z " /><path fill="rgb(84,104,61)" stroke="rgb(84,104,61)" stroke-width="1" opacity="0.996078431372549" d="M 111.5 133 L 116 138.5 L 112.5 140 L 109 135.5 L 111.5 133 Z M 113 136 L 112 138 L 114 139 L 113 136 Z " /><path fill="rgb(84,104,61)" stroke="rgb(84,104,61)" stroke-width="1" opacity="0.996078431372549" d="M 189.5 134 L 193 135.5 Q 193.5 140.5 189.5 141 L 186 138.5 L 189.5 134 Z " /><path fill="rgb(84,104,61)" stroke="rgb(84,104,61)" stroke-width="1" opacity="0.996078431372549" d="M 8.5 140 L 10 144 Q 6.2 145.2 8.5 140 Z " /><path fill="rgb(84,104,61)" stroke="rgb(84,104,61)" stroke-width="1" opacity="0.996078431372549" d="M 117.5 140 Q 122.5 139.5 123 143.5 Q 124.3 147.7 119.5 146 L 116 141.5 L 117.5 140 Z M 119 141 L 118 143 L 121 144 L 119 141 Z " /><path fill="rgb(84,104,61)" stroke="rgb(84,104,61)" stroke-width="1" opacity="0.996078431372549" d="M 183.5 140 L 186 141 L 184.5 145 L 180.5 147 L 179 143.5 L 183.5 140 Z " /><path fill="rgb(84,104,61)" stroke="rgb(84,104,61)" stroke-width="1" opacity="0.996078431372549" d="M 125.5 145 L 132 148.5 L 131 151 Q 126.1 151.1 124 147.5 L 125.5 145 Z " /><path fill="rgb(84,104,61)" stroke="rgb(84,104,61)" stroke-width="1" opacity="0.996078431372549" d="M 174.5 146 L 178 147.5 L 176.5 150 L 171 151 L 170 148.5 L 174.5 146 Z M 176 147 L 173 149 L 176 149 L 176 147 Z " /><path fill="rgb(84,104,61)" stroke="rgb(84,104,61)" stroke-width="1" opacity="0.996078431372549" d="M 134.5 149 L 141 151.5 L 140 154 Q 135 154.8 133 151.5 L 134.5 149 Z M 136 150 L 135 152 L 139 153 L 139 151 L 136 150 Z " /><path fill="rgb(84,104,61)" stroke="rgb(84,104,61)" stroke-width="1" opacity="0.996078431372549" d="M 166.5 149 L 169 150.5 Q 170.1 153.8 167.5 153 L 162 154 L 161 151.5 L 166.5 149 Z M 163 151 L 164 153 L 167 152 L 163 151 Z " /><path fill="rgb(84,104,61)" stroke="rgb(84,104,61)" stroke-width="1" opacity="0.996078431372549" d="M 143 151 L 146 151.5 L 144 152 Q 142.7 155.3 147.5 154 L 147.5 152 Q 151.3 150.8 150 154.5 L 146.5 156 L 142 155 L 143 151 Z " /><path fill="rgb(84,104,61)" stroke="rgb(84,104,61)" stroke-width="1" opacity="0.996078431372549" d="M 156.5 151 L 160 152.5 L 158.5 155 L 153.5 156 L 152 152 L 155 152.5 L 154.5 154 Q 159.3 155.3 158 152 L 156.5 151 Z " /><path fill="rgb(85,105,62)" stroke="rgb(85,105,62)" stroke-width="1" opacity="1" d="M 65.5 11 L 234.5 11 L 235 11.5 L 235 17 L 66.5 17 L 66 19 L 235.5 19 L 236 18.5 L 236 11.5 L 237.5 11 L 238.5 12 L 251.5 13 L 264.5 18 L 279 29.5 Q 290.1 40.9 294 59.5 L 294 67.5 L 295 68.5 L 295 131.5 L 294 132.5 L 293 145.5 L 288 158.5 L 288.5 160 Q 287.3 157.8 286 160.5 L 282 168 L 279 169.5 L 275.5 174 Q 268.3 181.3 257.5 185 L 247.5 188 L 238.5 188 L 237.5 189 L 65.5 189 L 64.5 188 L 51.5 187 L 40.5 182 L 37 182 Q 38.1 179.3 35.5 180 L 30 177 L 28.5 174 L 22 168.5 L 11 150.5 L 11 148.5 L 9 144.5 L 10 142.5 L 8 139.5 L 9 137.5 L 9 135.5 L 8 132.5 L 8 68.5 L 9 65.5 L 9 58.5 L 12 50.5 Q 9.5 49 13 47.5 L 13 44.5 L 19 34 Q 21.7 35.1 21 32.5 L 22 30 L 26 27.5 Q 25.3 25.3 27.5 26 Q 34.7 18.7 45.5 15 L 55.5 12 L 64.5 12 L 65.5 11 Z M 56 17 Q 40 20 31 29 Q 19 40 14 58 L 14 142 Q 18 157 27 168 Q 38 179 56 183 L 67 183 L 67 181 L 57 181 L 47 178 Q 35 173 27 164 L 27 163 L 19 151 L 16 141 L 16 132 L 15 131 L 16 128 L 16 73 L 15 72 Q 17 67 16 59 L 21 45 L 24 41 Q 23 38 26 39 L 27 37 L 39 26 L 47 22 L 57 19 L 65 19 L 65 17 L 56 17 Z M 238 17 L 238 19 L 247 19 L 257 22 L 270 30 Q 283 40 287 60 L 287 127 L 233 127 L 232 129 L 288 129 L 289 128 L 289 73 L 288 72 L 289 69 L 289 59 L 286 51 Q 287 47 285 48 L 285 47 L 276 33 Q 269 24 258 20 L 248 17 L 238 17 Z M 143 45 L 138 46 L 139 50 L 146 49 Q 148 43 143 45 Z M 148 45 L 150 49 Q 155 50 156 47 L 156 45 L 148 45 Z M 158 45 L 158 49 L 161 50 Q 167 52 165 46 L 158 45 Z M 135 47 L 129 49 L 130 53 L 137 51 L 135 47 Z M 168 47 L 167 51 L 172 53 Q 176 54 174 49 L 168 47 Z M 125 51 L 122 53 Q 118 55 123 57 L 127 55 Q 129 56 128 53 L 125 51 Z M 177 51 L 175 54 Q 176 58 182 57 L 183 54 L 177 51 Z M 118 56 L 113 59 L 115 63 L 119 61 L 120 57 L 118 56 Z M 185 57 L 183 59 L 187 63 Q 191 65 190 61 Q 190 57 185 57 Z M 109 63 L 106 68 L 110 70 L 113 65 L 109 63 Z M 193 63 L 190 66 L 193 71 L 197 69 L 193 63 Z M 105 71 L 101 77 L 105 78 L 108 73 L 105 71 Z M 198 71 L 196 73 L 198 79 L 202 78 L 200 72 L 198 71 Z M 99 80 L 98 86 L 102 87 L 104 82 Q 103 79 99 80 Z M 202 80 L 200 82 Q 199 87 203 88 L 205 87 L 204 83 Q 205 79 202 80 Z M 161 85 L 154 89 L 156 91 L 158 92 L 158 115 L 166 115 L 167 114 L 167 86 Q 167 84 161 85 Z M 97 89 L 96 92 Q 94 98 100 96 L 101 91 L 97 89 Z M 202 90 L 203 97 L 207 96 L 206 92 L 206 90 L 202 90 Z M 138 91 L 138 97 L 133 97 L 133 100 Q 134 102 138 101 Q 137 106 140 107 L 146 107 L 146 101 Q 151 102 152 100 L 152 97 L 146 97 L 146 91 L 138 91 Z M 96 99 Q 94 104 98 106 L 100 105 Q 102 97 96 99 Z M 203 99 Q 201 105 205 107 L 207 106 L 207 99 L 203 99 Z M 97 108 L 97 114 Q 98 116 102 115 L 101 112 Q 103 106 97 108 Z M 202 109 L 201 112 Q 199 118 205 116 L 206 113 Q 208 107 202 109 Z M 102 117 L 99 118 L 101 124 L 105 123 L 104 119 L 102 117 Z M 199 118 L 197 124 L 201 125 L 204 120 L 199 118 Z M 105 126 L 103 128 L 106 133 L 110 132 L 109 129 Q 109 125 105 126 Z M 196 126 L 193 131 Q 190 132 195 134 L 197 133 L 199 127 L 196 126 Z M 287 131 Q 287 152 276 164 Q 266 177 247 181 L 239 181 L 238 183 Q 261 183 274 170 L 278 165 Q 277 162 280 163 Q 286 154 289 142 L 289 132 L 287 131 Z M 112 133 L 109 136 L 113 140 L 116 139 L 112 133 Z M 190 134 L 186 139 L 190 141 Q 194 141 193 136 L 190 134 Z M 118 140 L 116 142 L 120 146 Q 124 148 123 144 Q 122 139 118 140 Z M 184 140 L 179 144 L 181 147 L 185 145 L 186 141 L 184 140 Z M 126 145 L 124 148 Q 126 151 131 151 L 132 149 L 126 145 Z M 175 146 L 170 149 L 171 151 L 177 150 L 178 148 L 175 146 Z M 135 149 L 133 152 Q 135 155 140 154 L 141 152 L 135 149 Z M 167 149 L 161 152 L 162 154 L 168 153 Q 170 154 169 151 L 167 149 Z M 143 151 L 142 155 L 149 156 L 150 152 L 143 151 Z M 157 151 L 152 152 L 154 156 L 159 155 L 160 153 L 157 151 Z " /></svg>